<svg width="24" height="24" xmlns="http://www.w3.org/2000/svg">
    <path fill="none" stroke="none" visibility="hidden" d="M 0 0 L 24 0 L 24 24 L 0 24 Z"/>
    <path fill="none" stroke="#000000" stroke-width="2" stroke-linecap="round" stroke-linejoin="round" d="M 20 6 L 20 18 C 20 19.10457 19.10457 20 18 20 L 8 20 C 6.8954306 20 6 19.10457 6 18 L 6 6 C 6 4.8954306 6.8954306 4 8 4 L 18 4 C 19.10457 4 20 4.8954306 20 6"/>
    <path fill="none" stroke="#000000" stroke-width="2" stroke-linecap="round" stroke-linejoin="round" d="M 10 16 L 16 16"/>
    <path fill="none" stroke="#000000" stroke-width="2" stroke-linecap="round" stroke-linejoin="round" d="M 11 11 C 11 12.104569 11.895431 13 13 13 C 14.104569 13 15 12.104569 15 11 C 15 9.895431 14.104569 9 13 9 C 11.895431 9 11 9.895431 11 11"/>
    <path fill="none" stroke="#000000" stroke-width="2" stroke-linecap="round" stroke-linejoin="round" d="M 4 8 L 7 8"/>
    <path fill="none" stroke="#000000" stroke-width="2" stroke-linecap="round" stroke-linejoin="round" d="M 4 12 L 7 12"/>
    <path fill="none" stroke="#000000" stroke-width="2" stroke-linecap="round" stroke-linejoin="round" d="M 4 16 L 7 16"/>
</svg>
