<svg width="24" height="24" xmlns="http://www.w3.org/2000/svg">
    <path fill="none" stroke="none" visibility="hidden" d="M 0 0 L 24 0 L 24 24 L 0 24 Z"/>
    <path fill="#000000" stroke="none" d="M 5.315 2.1 C 6.106 1.987 7.215 2.245 8.648 3.066 L 8.92 3.227 L 9.08 3.327 L 9.477 3.244 C 10.990797 2.9514878 12.543928 2.9244175 14.067 3.164 L 14.523001 3.244 L 14.918999 3.327 L 15.08 3.227 C 16.465 2.387 17.567 2.057 18.402 2.079 L 18.566 2.087 L 18.713 2.104 L 18.789 2.118 L 18.839 2.129 L 18.983 2.176 C 19.218763 2.2734566 19.408365 2.4573343 19.513 2.69 C 19.922203 3.6017017 20.060034 4.612004 19.91 5.6 L 19.863 5.867 L 19.817 6.063 L 19.94 6.226 C 20.514 7.021 20.87 7.954 20.97 8.933 L 20.993 9.228 L 21 9.5 C 21 13.354999 19.341 15.383 16.356 16.18 L 16.111 16.241 L 15.979 16.27 L 15.993 16.431 L 16.001 16.588 L 16.005 16.953 L 16.003 17.166 L 16 21 C 15.999933 21.506975 15.620493 21.933683 15.117 21.993 L 15 22 L 9 22 C 8.493025 21.999933 8.066316 21.620493 8.007 21.117 L 8 21 L 8 20.266 C 6.182 20.526 4.97 19.842 3.89 18.388 L 3.355 17.622 C 3.075 17.226 2.9 17.043 2.766 16.978 L 2.718 16.959 C 2.203195 16.79171 1.9149606 16.24516 2.0676692 15.7258415 C 2.2203774 15.206526 2.7585838 14.902995 3.282 15.041001 C 3.924 15.229 4.356 15.608999 4.852 16.28 L 5.39 17.049 C 6.15 18.128 6.75 18.508 7.9990005 18.24 L 8 17.562 L 7.982 17.394 C 7.9524693 17.12037 7.9454455 16.844778 7.9609995 16.57 L 7.978 16.385 L 7.997 16.265 L 7.8889995 16.241 C 4.913 15.531 3.186 13.668 3.014 10.102 L 3.004 9.792 L 3 9.5 C 3.001158 8.416577 3.3165698 7.356753 3.908 6.449 L 4.06 6.227 L 4.182 6.064 L 4.137 5.868 C 3.9567168 4.989563 4.006667 4.079432 4.282 3.226 L 4.382 2.944 L 4.488 2.691 C 4.5923963 2.4585195 4.7816133 2.2746677 5.017 2.177 L 5.161 2.13 L 5.315 2.1 Z"/>
</svg>
