<svg width="24" height="24" xmlns="http://www.w3.org/2000/svg">
    <path fill="none" stroke="none" visibility="hidden" d="M 0 0 L 24 0 L 24 24 L 0 24 Z"/>
    <path fill="none" stroke="#000000" stroke-width="2" stroke-linecap="round" stroke-linejoin="round" d="M 5 12 L 3 12 L 12 3 L 21 12 L 19 12"/>
    <path fill="none" stroke="#000000" stroke-width="2" stroke-linecap="round" stroke-linejoin="round" d="M 5 12 L 5 19 C 5 20.10457 5.8954306 21 7 21 L 17 21 C 18.10457 21 19 20.10457 19 19 L 19 12"/>
    <path fill="none" stroke="#000000" stroke-width="2" stroke-linecap="round" stroke-linejoin="round" d="M 9 21 L 9 15 C 9 13.895431 9.895431 13 11 13 L 13 13 C 14.104569 13 15 13.895431 15 15 L 15 21"/>
</svg>
