<svg width="24" height="24" xmlns="http://www.w3.org/2000/svg">
    <path fill="none" stroke="none" visibility="hidden" d="M 0 0 L 24 0 L 24 24 L 0 24 Z"/>
    <path fill="none" stroke="#000000" stroke-width="2" stroke-linecap="round" stroke-linejoin="round" d="M 4 5 L 11 5"/>
    <path fill="none" stroke="#000000" stroke-width="2" stroke-linecap="round" stroke-linejoin="round" d="M 7 4 C 7 8.846 7 11 7.5 12"/>
    <path fill="none" stroke="#000000" stroke-width="2" stroke-linecap="round" stroke-linejoin="round" d="M 10 8.5 C 10 10.786 8 13 6.5 13 C 5 13 4 11.865 4 11 C 4 9 5 8 7 8 C 9 8 12 8.57 12 10.857001 C 12 12.381 11.332999 13.428 10 14"/>
    <path fill="none" stroke="#000000" stroke-width="2" stroke-linecap="round" stroke-linejoin="round" d="M 12 20 L 16 11 L 20 20"/>
    <path fill="none" stroke="#000000" stroke-width="2" stroke-linecap="round" stroke-linejoin="round" d="M 19.1 18 L 12.9 18"/>
</svg>
