<svg width="24" height="24" xmlns="http://www.w3.org/2000/svg">
    <path fill="none" stroke="none" visibility="hidden" d="M 0 0 L 24 0 L 24 24 L 0 24 Z"/>
    <path fill="none" stroke="#000000" stroke-width="2" stroke-linecap="round" stroke-linejoin="round" d="M 8 7 C 8 9.209139 9.790861 11 12 11 C 14.209139 11 16 9.209139 16 7 C 16 4.790861 14.209139 3 12 3 C 9.790861 3 8 4.790861 8 7"/>
    <path fill="none" stroke="#000000" stroke-width="2" stroke-linecap="round" stroke-linejoin="round" d="M 6 21 L 6 19 C 6 16.790861 7.7908616 15 10 15 L 13.5 15"/>
    <path fill="none" stroke="#000000" stroke-width="2" stroke-linecap="round" stroke-linejoin="round" d="M 20 21 L 22 19 L 20 17"/>
    <path fill="none" stroke="#000000" stroke-width="2" stroke-linecap="round" stroke-linejoin="round" d="M 17 17 L 15 19 L 17 21"/>
</svg>
