<svg width="24" height="24" xmlns="http://www.w3.org/2000/svg">
    <path fill="none" stroke="none" visibility="hidden" d="M 0 0 L 24 0 L 24 24 L 0 24 Z"/>
    <path fill="none" stroke="#000000" stroke-width="2" stroke-linecap="round" stroke-linejoin="round" d="M 14 3 L 14 7 C 14 7.5522847 14.447715 8 15 8 L 19 8"/>
    <path fill="none" stroke="#000000" stroke-width="2" stroke-linecap="round" stroke-linejoin="round" d="M 17 21 L 7 21 C 5.8954306 21 5 20.10457 5 19 L 5 5 C 5 3.8954308 5.8954306 3 7 3 L 14 3 L 19 8 L 19 19 C 19 20.10457 18.10457 21 17 21"/>
    <path fill="none" stroke="#000000" stroke-width="2" stroke-linecap="round" stroke-linejoin="round" d="M 11 12.5 C 11 11.671573 10.328427 11 9.5 11 C 8.671573 11 8 11.671573 8 12.5 L 8 15.5 C 8 16.328426 8.671573 17 9.5 17 C 10.328427 17 11 16.328426 11 15.5"/>
    <path fill="none" stroke="#000000" stroke-width="2" stroke-linecap="round" stroke-linejoin="round" d="M 13 11 L 14.5 17 L 16 11"/>
</svg>
