<svg width="24" height="24" xmlns="http://www.w3.org/2000/svg">
    <path fill="none" stroke="#000000" stroke-width="2" stroke-linecap="round" stroke-linejoin="round" d="M 12 22 C 6.477153 22 2 17.522848 2 12 C 2 6.477153 6.477153 2 12 2 C 17.522848 2 22 6.0294366 22 11 C 22 13.761425 19.761423 16 17 16 L 14.750001 16 C 14.087149 16 13.481189 16.374504 13.184752 16.967377 C 12.888316 17.560247 12.95229 18.269718 13.35 18.8 L 13.65 19.2 C 14.04771 19.730282 14.111684 20.439753 13.815248 21.032623 C 13.518811 21.625496 12.912851 22 12.249999 22 Z"/>
    <path fill="#000000" stroke="#000000" stroke-width="2" stroke-linecap="round" stroke-linejoin="round" d="M 14 6.5 C 14 6.7761426 13.776142 7 13.5 7 C 13.223858 7 13 6.7761426 13 6.5 C 13 6.2238574 13.223858 6 13.5 6 C 13.776142 6 14 6.2238574 14 6.5 Z"/>
    <path fill="#000000" stroke="#000000" stroke-width="2" stroke-linecap="round" stroke-linejoin="round" d="M 18 10.5 C 18 10.776142 17.776142 11 17.5 11 C 17.223858 11 17 10.776142 17 10.5 C 17 10.223858 17.223858 10 17.5 10 C 17.776142 10 18 10.223858 18 10.5 Z"/>
    <path fill="#000000" stroke="#000000" stroke-width="2" stroke-linecap="round" stroke-linejoin="round" d="M 7 12.5 C 7 12.776142 6.7761426 13 6.5 13 C 6.2238574 13 6 12.776142 6 12.5 C 6 12.223858 6.2238574 12 6.5 12 C 6.7761426 12 7 12.223858 7 12.5 Z"/>
    <path fill="#000000" stroke="#000000" stroke-width="2" stroke-linecap="round" stroke-linejoin="round" d="M 9 7.5 C 9 7.7761426 8.776142 8 8.5 8 C 8.223858 8 8 7.7761426 8 7.5 C 8 7.2238574 8.223858 7 8.5 7 C 8.776142 7 9 7.2238574 9 7.5 Z"/>
</svg>
